<svg xmlns="http://www.w3.org/2000/svg" viewBox="0 0 208.99 235.27"><defs><style>.cls-1{fill:#fff;}</style></defs><title>Ativo 9</title><g id="Camada_2" data-name="Camada 2"><g id="Camada_2-2" data-name="Camada 2"><path class="cls-1" d="M109,213.52a114.56,114.56,0,0,0,26.36-2.89c2.13-.59,4.31-1,6.39-1.8l3.15-1,3.07-1.26,1.54-.63c.5-.23,1-.49,1.49-.73l3-1.47c1.89-1.15,3.85-2.18,5.62-3.51a57.21,57.21,0,0,0,5.23-4.07,60.79,60.79,0,0,0,4.64-4.72,53.85,53.85,0,0,0,7.39-10.93,58.22,58.22,0,0,0,6-25.48,59.76,59.76,0,0,0-1.34-13.08A47.41,47.41,0,0,0,177,129.62a35.21,35.21,0,0,0-8.1-10.11,39,39,0,0,0-11.25-6.41c-2-.82-4.13-1.39-6.23-2l-3.2-.76-1.6-.37-1.62-.29-3.25-.6-3.27-.46c-2.18-.34-4.37-.54-6.57-.78-4.39-.44-8.8-.76-13.21-1-2.21-.14-4.41-.22-6.61-.32l-3.31-.13h-3.29c-8.8.34-17.66.82-26.42,1.83-2.19.26-4.36.59-6.54.91l-3.25.59-1.62.3-1.6.37a59.26,59.26,0,0,0-12.42,4.08,34.79,34.79,0,0,0-10.56,7.42A37.47,37.47,0,0,0,36,132.72a58.32,58.32,0,0,0,3.35,50.78A54,54,0,0,0,57.8,202.08l2.86,1.68,3,1.48a30.3,30.3,0,0,0,3,1.34c1,.42,2,.86,3.07,1.25a87.4,87.4,0,0,0,12.79,3.51l3.27.64,3.29.44c1.1.14,2.19.32,3.29.42l3.31.26c1.11.08,2.21.2,3.32.24l3.32.09,3.32.09Zm0,0h-3.33l-3.32-.06L99,213.39c-1.11,0-2.22-.15-3.32-.22l-3.32-.24c-1.1-.09-2.2-.27-3.3-.4l-3.3-.43-3.26-.62A89.07,89.07,0,0,1,69.66,208c-1-.39-2.06-.83-3.09-1.24a29.59,29.59,0,0,1-3-1.33l-3-1.47-2.88-1.67a56.8,56.8,0,0,1-10.56-8.09,54.68,54.68,0,0,1-8.31-10.42,59.3,59.3,0,0,1-4.07-51.65,38.82,38.82,0,0,1,7.23-11.37,35.09,35.09,0,0,1,11-7.89,59.78,59.78,0,0,1,12.75-4.28l1.63-.39,1.65-.31,3.29-.62c2.21-.33,4.41-.68,6.62-1,8.85-1.07,17.7-1.61,26.61-2h3.36l3.33.15c2.22.12,4.45.2,6.66.36,4.44.27,8.87.62,13.3,1.09,2.21.25,4.42.47,6.62.82l3.31.49,3.29.62,1.65.31,1.63.38,3.27.79c2.14.66,4.31,1.26,6.39,2.12a39.49,39.49,0,0,1,11.64,6.83,36.45,36.45,0,0,1,8.3,10.63,48.77,48.77,0,0,1,4.38,12.7A60.24,60.24,0,0,1,183.78,155a59,59,0,0,1-6.41,25.76,54.07,54.07,0,0,1-7.62,10.93,61.69,61.69,0,0,1-4.73,4.7c-1.74,1.38-3.42,2.83-5.29,4s-3.77,2.34-5.67,3.49l-3,1.46c-.5.25-1,.5-1.5.73l-1.54.62L144.94,208l-3.16,1c-2.09.75-4.28,1.18-6.42,1.76A114.81,114.81,0,0,1,109,213.52Z"/><path class="cls-1" d="M93,162a22.61,22.61,0,0,1-18.36,5.61A22.76,22.76,0,0,1,66.9,165h0A22.9,22.9,0,0,1,55.42,149a23.4,23.4,0,0,1,21.94-4.17C86.27,147.59,91.73,154.31,93,162Z"/><path class="cls-1" d="M121.42,162a22.61,22.61,0,0,0,18.36,5.61,22.76,22.76,0,0,0,7.74-2.62h0A22.9,22.9,0,0,0,159,149a23.4,23.4,0,0,0-21.94-4.17C128.15,147.59,122.69,154.31,121.42,162Z"/><path class="cls-1" d="M94.82,235.25c-1.53,0-3.07.05-4.61,0s-3.08-.08-4.61-.26-3.07-.29-4.59-.55l-2.29-.36-2.27-.46a78.81,78.81,0,0,1-17.59-5.9A80.2,80.2,0,0,1,30,204.5a80.56,80.56,0,0,1-15.54-33.9c-.29-1.55-.61-3.09-.78-4.65l-.3-2.34-.19-2.35c-.15-1.56-.18-3.14-.22-4.71s0-3.09-.05-4.63l0-18.42,0-9.21c0-3.07,0-6.12.11-9.28a78.26,78.26,0,0,1,2.94-18.6A68,68,0,0,1,35.67,64.78,75.62,75.62,0,0,1,51,54a93.68,93.68,0,0,1,17.24-7,111.94,111.94,0,0,1,18.16-3.66l4.6-.46,4.61-.28,4.62-.09,4.6.07-4.59.23-4.59.39-4.56.51-4.54.68a110.16,110.16,0,0,0-17.71,4.48c-11.5,3.91-22.34,9.88-31,18.2A66,66,0,0,0,19.54,97.44a76.78,76.78,0,0,0-2.67,17.72c-.1,3-.08,6.06-.07,9.13l0,9.21,0,18.42c0,1.52,0,3.09,0,4.57s.05,3,.19,4.49l.16,2.24.28,2.23c.16,1.49.43,3,.69,4.44a79.06,79.06,0,0,0,14.3,32.73,83.6,83.6,0,0,0,12.31,13.2,81.06,81.06,0,0,0,50.09,19.43Z"/><path class="cls-1" d="M193.32,171.05c2-3.21,4-6.34,6.13-9.46,1-1.57,2.11-3.1,3.17-4.65s2.12-3.1,3.22-4.62l-.3.89c-.15-3.78-.28-7.55-.35-11.33s-.14-7.54-.16-11.32l0-5.66,0-5.66,0-5.66.13-5.66.45,1.19c-1.79-2.08-3.57-4.17-5.32-6.29s-3.51-4.21-5.23-6.36S191.67,92.17,190,90s-3.36-4.36-5-6.59c2,1.85,4,3.75,6,5.66s3.94,3.84,5.86,5.8,3.86,3.9,5.77,5.88,3.81,4,5.68,6l.44.48,0,.72.12,5.66,0,5.66,0,5.66,0,5.66c0,3.78,0,7.55-.16,11.32s-.19,7.55-.34,11.33l0,.54-.27.34c-1.19,1.45-2.4,2.88-3.62,4.31s-2.42,2.86-3.67,4.27C198.4,165.5,195.91,168.31,193.32,171.05Z"/><path class="cls-1" d="M15.66,170.55c-2.58-2.65-5.07-5.38-7.53-8.12-1.25-1.36-2.45-2.76-3.66-4.15S2,155.51.85,154.11l-.29-.35,0-.55c-.15-3.78-.29-7.55-.35-11.33S.05,134.34,0,130.56,0,123,0,119.24s.08-7.55.18-11.32l0-.71.42-.46c1.78-2,3.6-3.91,5.43-5.84s3.66-3.86,5.52-5.76,3.73-3.8,5.62-5.68S21,85.73,23,83.92c-1.54,2.18-3.13,4.32-4.73,6.45S15,94.61,13.37,96.69s-3.3,4.17-5,6.23S5,107.05,3.33,109.08l.43-1.16c.1,3.77.18,7.55.18,11.32s.06,7.55,0,11.32-.05,7.55-.16,11.32-.19,7.55-.35,11.33l-.31-.9c1.1,1.48,2.16,3,3.22,4.49s2.14,3,3.17,4.53C11.61,164.37,13.68,167.42,15.66,170.55Z"/><path class="cls-1" d="M6.29,103.12c.1-4.71.4-9.41.84-14.1.2-2.35.49-4.69.74-7s.61-4.68,1-7l.54-3.5L10.05,68c.4-2.33.94-4.64,1.43-6.95s1.11-4.61,1.7-6.91,1.31-4.57,2.07-6.83,1.51-4.53,2.49-6.73l1.4-3.31L20.79,34a114.32,114.32,0,0,1,7.47-12.22,102.52,102.52,0,0,1,9.05-11.15,62.06,62.06,0,0,1,5.25-5c.92-.78,1.88-1.54,2.87-2.26.49-.36,1-.72,1.52-1.06a19.1,19.1,0,0,1,1.68-1L51.1,0l.13,2.81c.2,4.56.3,9.09.2,13.66-.06,2.29-.13,4.57-.39,6.91,0,.58-.17,1.19-.28,1.79a11,11,0,0,1-.6,1.84c-.46,1.12-1,2.13-1.5,3.14s-1,2-1.46,3a14.15,14.15,0,0,0-.56,1.47,5.23,5.23,0,0,0-.24,1.44,34.58,34.58,0,0,0,.51,6.57c.67,4.44,1.58,8.88,2.54,13.3a135.82,135.82,0,0,1-3.9-13A36.33,36.33,0,0,1,44.47,36a6.68,6.68,0,0,1,.2-1.92,17.48,17.48,0,0,1,.53-1.73c.41-1.11.87-2.16,1.32-3.2s.9-2.06,1.24-3.06a8.69,8.69,0,0,0,.37-1.41c0-.51.13-1,.15-1.56.15-2.17.12-4.41.07-6.64S48.2,12,48.07,9.75s-.24-4.5-.4-6.73l2.6,1.48c-.37.21-.87.54-1.31.85s-.9.64-1.34,1C46.73,7,45.86,7.75,45,8.51c-1.68,1.52-3.33,3.11-4.88,4.8a96.77,96.77,0,0,0-8.6,10.8,114.45,114.45,0,0,0-7.32,11.75l-1.59,3-1.39,3.15c-1,2.08-1.72,4.28-2.57,6.43a215.54,215.54,0,0,0-7.42,26.93Q8.3,89.14,6.29,103.12Z"/><path class="cls-1" d="M202.56,103.12c-1.36-9.31-3-18.56-4.95-27.71a215.58,215.58,0,0,0-7.43-26.93c-.84-2.15-1.58-4.35-2.57-6.43l-1.39-3.15-1.58-3a116.31,116.31,0,0,0-7.33-11.75,95.63,95.63,0,0,0-8.6-10.8c-1.55-1.69-3.19-3.28-4.88-4.8-.84-.76-1.71-1.49-2.6-2.17-.45-.35-.89-.68-1.35-1s-.94-.64-1.31-.85L161.17,3c-.16,2.23-.29,4.49-.4,6.73s-.22,4.49-.28,6.73-.07,4.47.07,6.64c0,.55.1,1.05.15,1.56a8.78,8.78,0,0,0,.38,1.41c.34,1,.79,2,1.24,3.06s.9,2.09,1.31,3.2a15.18,15.18,0,0,1,.54,1.73,7,7,0,0,1,.19,1.92,36.33,36.33,0,0,1-1.08,6.88,130.33,130.33,0,0,1-3.9,13c1-4.42,1.87-8.86,2.54-13.3a34.61,34.61,0,0,0,.52-6.57,5.24,5.24,0,0,0-.25-1.44,14.15,14.15,0,0,0-.56-1.47c-.43-1-.94-2-1.45-3s-1-2-1.51-3.14a12,12,0,0,1-.6-1.84c-.1-.6-.23-1.21-.28-1.79-.26-2.34-.33-4.62-.38-6.91-.1-4.57,0-9.1.2-13.66L157.74,0l2.47,1.34c.66.35,1.15.66,1.69,1s1,.7,1.52,1.06c1,.72,1.94,1.48,2.87,2.26a63.48,63.48,0,0,1,5.24,5,100.21,100.21,0,0,1,9.05,11.15A114.4,114.4,0,0,1,188.06,34l1.64,3.23,1.41,3.31c1,2.2,1.67,4.48,2.48,6.73s1.39,4.55,2.08,6.83,1.19,4.59,1.69,6.91,1,4.62,1.44,6.95l.64,3.48L200,75c.39,2.33.67,4.68,1,7s.54,4.69.74,7C202.16,93.71,202.46,98.41,202.56,103.12Z"/></g></g></svg>